<svg width="10" height="18" viewBox="0 0 10 18" fill="none" xmlns="http://www.w3.org/2000/svg">
  <path d="M4.75746 17.5226L4.01389 16.4076V11.1535C4.3345 11.2057 4.66334 11.2361 5 11.2361C5.33666 11.2361 5.6655 11.2057 5.98611 11.1535V16.4076L5.24289 17.5226C5.24288 17.5227 5.24287 17.5227 5.24286 17.5227C5.1274 17.6957 4.8729 17.6957 4.75746 17.5226ZM0.125 5C0.125 2.30758 2.30758 0.125 5 0.125C7.69242 0.125 9.875 2.30758 9.875 5C9.875 7.69242 7.69242 9.875 5 9.875C2.30758 9.875 0.125 7.69242 0.125 5ZM2.76389 5C2.76389 3.76695 3.76695 2.76389 5 2.76389C5.2989 2.76389 5.54167 2.52112 5.54167 2.22222C5.54167 1.92333 5.2989 1.68056 5 1.68056C3.16986 1.68056 1.68056 3.1695 1.68056 5C1.68056 5.2989 1.92333 5.54167 2.22222 5.54167C2.52112 5.54167 2.76389 5.2989 2.76389 5Z" fill="#1E1E20" stroke="black" stroke-width="0.0"/>
</svg>
