<svg fill="none" height="18" viewBox="0 0 10 18" width="10" xmlns="http://www.w3.org/2000/svg"><path d="m4.75746 17.5226-.74357-1.115v-5.2541c.32061.0522.64945.0826.98611.0826s.6655-.0304.98611-.0826v5.2541l-.74322 1.115c-.00001.0001-.00002.0001-.00003.0001-.11546.173-.36996.173-.4854-.0001zm-4.63246-12.5226c0-2.69242 2.18258-4.875 4.875-4.875s4.875 2.18258 4.875 4.875-2.18258 4.875-4.875 4.875-4.875-2.18258-4.875-4.875zm2.63889 0c0-1.23305 1.00306-2.23611 2.23611-2.23611.2989 0 .54167-.24277.54167-.54167 0-.29889-.24277-.54166-.54167-.54166-1.83014 0-3.31944 1.48894-3.31944 3.31944 0 .2989.24277.54167.54166.54167.2989 0 .54167-.24277.54167-.54167z" fill="#1e1e20"/></svg>